<svg width="522" height="456" viewBox="0 0 522 456" fill="none" xmlns="http://www.w3.org/2000/svg">
<line x1="215.329" y1="18.4173" x2="324.329" y2="83.4173" stroke="black" stroke-width="13"/>
<line x1="252.325" y1="40.4146" x2="294.325" y2="65.4146" stroke="white" stroke-width="13"/>
<line x1="108.227" y1="211.014" x2="153.227" y2="124.014" stroke="black" stroke-width="13"/>
<line x1="194.02" y1="258.823" x2="255.246" y2="185.823" stroke="black" stroke-width="13"/>
<line x1="148.198" y1="121.341" x2="263.198" y2="186.341" stroke="black" stroke-width="13"/>
<line x1="141.376" y1="143.446" x2="192.376" y2="174.446" stroke="black" stroke-width="13"/>
<line x1="171.376" y1="189.446" x2="222.376" y2="220.446" stroke="black" stroke-width="13"/>
<line x1="6.46972" y1="375.584" x2="108.375" y2="210.585" stroke="black" stroke-width="13"/>
<line x1="72.8528" y1="416.6" x2="191.285" y2="263.031" stroke="black" stroke-width="13"/>
<line x1="117.376" y1="187.446" x2="168.376" y2="218.446" stroke="black" stroke-width="13"/>
<line x1="102.162" y1="208.321" x2="199.162" y2="262.321" stroke="black" stroke-width="13"/>
<line x1="219.588" y1="24.594" x2="149.416" y2="130.339" stroke="black" stroke-width="13"/>
<line x1="277.048" y1="6.83716" x2="231.006" y2="77.2756" stroke="black" stroke-width="13"/>
<line x1="312.503" y1="25.4591" x2="268.503" y2="95.4591" stroke="black" stroke-width="13"/>
<line x1="269.434" y1="6.48113" x2="314.434" y2="34.4811" stroke="black" stroke-width="13"/>
<line x1="222.592" y1="110.394" x2="244.592" y2="77.3945" stroke="black" stroke-width="13"/>
<line x1="222.592" y1="110.394" x2="244.592" y2="77.3945" stroke="black" stroke-width="13"/>
<line x1="231.407" y1="108.464" x2="244.407" y2="116.464" stroke="black" stroke-width="13"/>
<line x1="239.592" y1="121.394" x2="261.592" y2="88.3945" stroke="black" stroke-width="13"/>
<line x1="326.588" y1="77.594" x2="256.416" y2="183.339" stroke="black" stroke-width="13"/>
<line x1="215.329" y1="18.4173" x2="324.329" y2="83.4173" stroke="black" stroke-width="13"/>
<line x1="252.325" y1="40.4146" x2="294.325" y2="65.4146" stroke="white" stroke-width="13"/>
<line x1="108.227" y1="211.014" x2="153.227" y2="124.014" stroke="black" stroke-width="13"/>
<line x1="194.02" y1="258.823" x2="255.246" y2="185.823" stroke="black" stroke-width="13"/>
<line x1="148.198" y1="121.341" x2="263.198" y2="186.341" stroke="black" stroke-width="13"/>
<line x1="141.376" y1="143.446" x2="192.376" y2="174.446" stroke="black" stroke-width="13"/>
<line x1="171.376" y1="189.446" x2="222.376" y2="220.446" stroke="black" stroke-width="13"/>
<line x1="6.46972" y1="375.584" x2="108.375" y2="210.585" stroke="black" stroke-width="13"/>
<line x1="72.8528" y1="416.6" x2="191.285" y2="263.031" stroke="black" stroke-width="13"/>
<line x1="117.376" y1="187.446" x2="168.376" y2="218.446" stroke="black" stroke-width="13"/>
<line x1="102.162" y1="208.321" x2="199.162" y2="262.321" stroke="black" stroke-width="13"/>
<line x1="219.588" y1="24.594" x2="149.416" y2="130.339" stroke="black" stroke-width="13"/>
<line x1="277.048" y1="6.83716" x2="231.006" y2="77.2756" stroke="black" stroke-width="13"/>
<line x1="312.503" y1="25.4591" x2="268.503" y2="95.4591" stroke="black" stroke-width="13"/>
<line x1="269.434" y1="6.48113" x2="314.434" y2="34.4811" stroke="black" stroke-width="13"/>
<line x1="222.592" y1="110.394" x2="244.592" y2="77.3945" stroke="black" stroke-width="13"/>
<line x1="222.592" y1="110.394" x2="244.592" y2="77.3945" stroke="black" stroke-width="13"/>
<line x1="231.407" y1="108.464" x2="244.407" y2="116.464" stroke="black" stroke-width="13"/>
<line x1="239.592" y1="121.394" x2="261.592" y2="88.3945" stroke="black" stroke-width="13"/>
<line x1="326.588" y1="77.594" x2="256.416" y2="183.339" stroke="black" stroke-width="13"/>
<line x1="405.329" y1="53.1365" x2="514.329" y2="118.137" stroke="black" stroke-width="13"/>
<line x1="442.325" y1="75.1338" x2="484.325" y2="100.134" stroke="white" stroke-width="13"/>
<line x1="298.227" y1="245.733" x2="343.227" y2="158.733" stroke="black" stroke-width="13"/>
<line x1="384.02" y1="293.542" x2="445.246" y2="220.542" stroke="black" stroke-width="13"/>
<line x1="338.198" y1="156.061" x2="453.198" y2="221.061" stroke="black" stroke-width="13"/>
<line x1="331.376" y1="178.165" x2="382.376" y2="209.165" stroke="black" stroke-width="13"/>
<line x1="361.376" y1="224.165" x2="412.376" y2="255.165" stroke="black" stroke-width="13"/>
<line x1="196.47" y1="410.304" x2="298.375" y2="245.304" stroke="black" stroke-width="13"/>
<line x1="262.853" y1="451.319" x2="381.285" y2="297.75" stroke="black" stroke-width="13"/>
<line x1="307.376" y1="222.165" x2="358.376" y2="253.165" stroke="black" stroke-width="13"/>
<line x1="292.162" y1="243.04" x2="389.162" y2="297.04" stroke="black" stroke-width="13"/>
<line x1="409.588" y1="59.3133" x2="339.416" y2="165.058" stroke="black" stroke-width="13"/>
<line x1="467.048" y1="41.5564" x2="421.006" y2="111.995" stroke="black" stroke-width="13"/>
<line x1="502.503" y1="60.1784" x2="458.503" y2="130.178" stroke="black" stroke-width="13"/>
<line x1="459.434" y1="41.2004" x2="504.434" y2="69.2004" stroke="black" stroke-width="13"/>
<line x1="412.592" y1="145.114" x2="434.592" y2="112.114" stroke="black" stroke-width="13"/>
<line x1="412.592" y1="145.114" x2="434.592" y2="112.114" stroke="black" stroke-width="13"/>
<line x1="421.407" y1="143.183" x2="434.407" y2="151.183" stroke="black" stroke-width="13"/>
<line x1="429.592" y1="156.114" x2="451.592" y2="123.114" stroke="black" stroke-width="13"/>
<line x1="516.588" y1="112.313" x2="446.416" y2="218.058" stroke="black" stroke-width="13"/>
</svg>
